<?xml version="1.0" encoding="UTF-8"?>
<svg id="Layer_1" data-name="Layer 1" xmlns="http://www.w3.org/2000/svg" viewBox="0 0 300 62">
  <defs>
    <style>
      .cls-1 {
        fill: #fff;
        stroke-width: 0px;
      }
    </style>
  </defs>
  <path class="cls-1" d="m62,31c-4.5,0-5.4-2.9-5.2-6.2h3.7c0,1.8.1,3.3,2.1,3.3,1.2,0,1.8-.9,1.8-2.2,0-3.4-7.3-3.6-7.3-9.3,0-3,1.3-5.4,5.8-5.4,3.6,0,5.3,1.7,5.1,5.7h-3.6c0-1.4-.2-2.9-1.7-2.9-1.2,0-1.9.7-1.9,2,0,3.6,7.4,3.3,7.4,9.3-.1,5.1-3.5,5.7-6.2,5.7h0Z"/>
  <path class="cls-1" d="m79.7,11.7h4l-4.9,8.5,4.9,10.5h-4.1l-4.2-9.7h-.1v9.8h-3.7V11.8h3.7v8.1h.1c0-.1,4.3-8.2,4.3-8.2Z"/>
  <path class="cls-1" d="m85.4,30.7l4.8-19h4.8l4.7,19h-3.8l-1-4.2h-5l-1,4.2c.1,0-3.5,0-3.5,0Zm7.2-20.1c-1.4,0-2.5-1.2-2.5-2.7s1.1-2.7,2.5-2.7,2.5,1.3,2.5,2.7-1.1,2.7-2.5,2.7Zm-.2,4.7h0l-1.7,8.2h3.5l-1.8-8.2h0Zm.2-5.8c.8,0,1.4-.7,1.4-1.6s-.7-1.6-1.4-1.6-1.4.7-1.4,1.6.6,1.6,1.4,1.6Z"/>
  <path class="cls-1" d="m102.8,30.7V11.7h4.9l4.6,13.2h.1v-13.2h3.4v19h-4.8l-4.8-13.9h-.1v13.9h-3.3Z"/>
  <path class="cls-1" d="m120.2,30.7V11.7h9.5v2.9h-5.9v4.7h5.4v2.9h-5.4v5.6h6.1v2.9h-9.7Z"/>
  <path class="cls-1" d="m137.9,30.7V11.7h9.5v2.9h-5.9v4.7h5.4v2.9h-5.4v5.6h6.1v2.9h-9.7Z"/>
  <path class="cls-1" d="m150.1,11.7h4.2l2.5,6.2,2.4-6.2h3.8l-4.4,9.4,4.4,9.6h-4.1l-2.7-6.6-2.7,6.6h-3.8l4.5-10-4.1-9h0Z"/>
  <path class="cls-1" d="m173.8,11.7h4l-4.9,8.5,4.9,10.5h-4.1l-4.2-9.8h-.1v9.8h-3.6V11.7h3.6v8.1h.1s4.3-8.1,4.3-8.1Z"/>
  <path class="cls-1" d="m180.8,30.7V11.7h3.6v15.9h5.5v3.2l-9.1-.1h0Z"/>
  <path class="cls-1" d="m204.6,11.7v13.5c0,2.9-1.5,5.8-5.9,5.8-4,0-5.9-2.3-5.9-5.8v-13.5h3.6v13.2c0,2.3.9,3.3,2.2,3.3,1.6,0,2.3-1.2,2.3-3.3v-13.2h3.7Z"/>
  <path class="cls-1" d="m213.6,31c-4.5,0-5.4-2.9-5.2-6.2h3.6c0,1.8.1,3.3,2.1,3.3,1.2,0,1.8-.9,1.8-2.2,0-3.4-7.4-3.6-7.4-9.3,0-3,1.3-5.4,5.8-5.4,3.6,0,5.3,1.7,5.1,5.7h-3.6c0-1.4-.2-2.9-1.7-2.9-1.2,0-1.9.7-1.9,2,0,3.6,7.4,3.3,7.4,9.3.1,5.1-3.3,5.7-6,5.7h0Z"/>
  <path class="cls-1" d="m223.6,30.7V11.7h3.6v19h-3.6Z"/>
  <path class="cls-1" d="m230.2,11.7h3.8l2.7,13.8h.1l3-13.8h3.6l-4.6,19h-4.3l-4.3-19h0Z"/>
  <path class="cls-1" d="m136.8,37.8v3.2h-4.1v15.9h-3.6v-15.9h-4.1v-3.2h11.8Z"/>
  <path class="cls-1" d="m137,56.8l4.8-19h4.8l4.7,19h-3.9l-1-4.2h-5l-1,4.2h-3.4Zm7-15.3h0l-1.7,8.2h3.5l-1.8-8.2h0Z"/>
  <path class="cls-1" d="m153.3,37.8h4.2l2.5,6.2,2.4-6.2h3.8l-4.4,9.4,4.4,9.6h-4.1l-2.7-6.6-2.7,6.6h-3.7l4.5-10-4.2-9h0Z"/>
  <path class="cls-1" d="m169.1,56.8v-19h3.6v19h-3.6Z"/>
  <rect class="cls-1" x="10" y="12.6" width="39.5" height="4"/>
  <rect class="cls-1" x="25.8" y="20.5" width="23.7" height="4"/>
  <rect class="cls-1" x="250.5" y="12.6" width="39.5" height="4"/>
  <rect class="cls-1" x="250.5" y="20.5" width="23.7" height="4"/>
</svg>